<svg xmlns="http://www.w3.org/2000/svg" width="359pt" height="320" viewBox="0 0 359 240"><defs><clipPath id="a"><path d="M123 0h235.37v240H123zm0 0"/></clipPath></defs><path d="M89.69 59.102h67.802l-10.5 40.2c-1.605 5.6-4.605 10.1-9 13.5-4.402 3.4-9.504 5.096-15.3 5.096h-31.5c-7.2 0-13.55 2.102-19.05 6.3-5.505 4.2-9.353 9.904-11.552 17.103-1.4 5.403-1.55 10.5-.45 15.302 1.098 4.796 3.047 9.05 5.852 12.75 2.797 3.703 6.4 6.652 10.797 8.85 4.397 2.2 9.198 3.298 14.4 3.298h19.2c3.602 0 6.547 1.453 8.852 4.352 2.297 2.902 2.945 6.148 1.95 9.75l-12 44.398h-21c-14.403 0-27.653-3.148-39.75-9.45-12.102-6.3-22.153-14.648-30.153-25.05-8-10.395-13.454-22.246-16.35-35.547-2.9-13.3-2.55-26.95 1.052-40.953l1.2-4.5c2.597-9.602 6.648-18.45 12.148-26.55 5.5-8.098 12-15 19.5-20.7 7.5-5.7 15.85-10.148 25.05-13.352 9.2-3.195 18.797-4.796 28.8-4.796" fill="#ff6c2c"/><g clip-path="url(#a)"><path d="M123.89 240L182.99 18.602c1.598-5.598 4.598-10.098 9-13.5C196.388 1.7 201.484 0 207.288 0h62.7c14.403 0 27.65 3.148 39.75 9.45 12.102 6.3 22.153 14.655 30.153 25.05 7.997 10.402 13.5 22.254 16.5 35.55 3 13.305 2.594 26.954-1.202 40.95l-1.2 4.5c-2.597 9.602-6.597 18.45-12 26.55-5.398 8.098-11.847 15.052-19.347 20.848-7.5 5.805-15.855 10.305-25.05 13.5-9.2 3.204-18.805 4.805-28.805 4.805h-54.297l10.8-40.5c1.6-5.402 4.6-9.8 9-13.203 4.396-3.398 9.497-5.102 15.302-5.102h17.398c7.2 0 13.653-2.2 19.352-6.597 5.695-4.398 9.445-10.097 11.25-17.1 1.394-4.997 1.547-9.9.445-14.7-1.1-4.8-3.05-9.047-5.848-12.75-2.8-3.695-6.402-6.695-10.796-9-4.406-2.297-9.206-3.45-14.402-3.45H233.39l-43.8 162.903c-1.606 5.4-4.606 9.797-9 13.195-4.403 3.407-9.406 5.102-15 5.102h-41.7" fill="#ff6c2c"/></g></svg>
