<svg xmlns="http://www.w3.org/2000/svg" width="1516" height="320" viewBox="0 0 1137 240"><defs><clipPath id="a"><path d="M1095 0h41.578v42H1095zm0 0"/></clipPath></defs><path d="M89.69 59.102h67.802l-10.5 40.2c-1.605 5.6-4.605 10.1-9 13.5-4.402 3.4-9.504 5.096-15.3 5.096h-31.5c-7.2 0-13.55 2.102-19.05 6.3-5.505 4.2-9.353 9.904-11.552 17.103-1.4 5.4-1.55 10.5-.45 15.302 1.098 4.796 3.047 9.05 5.852 12.75 2.797 3.703 6.4 6.652 10.8 8.85 4.395 2.2 9.196 3.298 14.4 3.298h19.2c3.6 0 6.55 1.453 8.85 4.352 2.297 2.902 2.95 6.148 1.95 9.75l-12 44.398h-21c-14.4 0-27.653-3.148-39.75-9.45-12.102-6.3-22.153-14.648-30.15-25.05-8.003-10.395-13.452-22.246-16.35-35.547-2.903-13.3-2.55-26.95 1.05-40.953l1.2-4.5c2.597-9.602 6.648-18.45 12.148-26.55 5.5-8.098 12-15 19.5-20.7 7.5-5.7 15.85-10.148 25.05-13.352 9.2-3.195 18.797-4.796 28.8-4.796M123.89 240L182.99 18.602c1.598-5.598 4.598-10.098 9-13.5C196.388 1.7 201.484 0 207.288 0h62.7c14.403 0 27.65 3.148 39.75 9.45 12.098 6.3 22.15 14.655 30.153 25.05 7.997 10.402 13.5 22.254 16.5 35.55 3 13.305 2.594 26.954-1.202 40.95l-1.2 4.5c-2.6 9.602-6.597 18.45-12 26.55-5.398 8.098-11.847 15.052-19.347 20.848-7.5 5.805-15.855 10.305-25.05 13.5-9.203 3.204-18.8 4.805-28.8 4.805h-54.302l10.8-40.504c1.6-5.4 4.6-9.798 9-13.2 4.4-3.398 9.497-5.102 15.302-5.102h17.398c7.2 0 13.653-2.2 19.352-6.597 5.7-4.398 9.45-10.097 11.25-17.1 1.394-4.997 1.547-9.9.45-14.7-1.103-4.8-3.052-9.047-5.853-12.75-2.8-3.7-6.402-6.7-10.796-9-4.402-2.297-9.202-3.45-14.402-3.45H233.39l-43.8 162.903c-1.606 5.4-4.606 9.797-9 13.195-4.403 3.407-9.403 5.102-15 5.102h-41.7M497.984 121.8l.903-3.3c.398-1.598.148-2.95-.75-4.05-.903-1.095-2.153-1.65-3.75-1.65h-97.5c-4.2 0-8.004-.902-11.403-2.698-3.402-1.8-6.2-4.153-8.398-7.05-2.203-2.9-3.703-6.25-4.5-10.052-.8-3.797-.703-7.695.3-11.7l6-22.8h132c8.2 0 15.7 1.8 22.5 5.398 6.798 3.602 12.45 8.3 16.95 14.102 4.5 5.805 7.598 12.45 9.3 19.95 1.696 7.5 1.548 15.253-.448 23.25l-23.704 88.198c-2.398 9-7.25 16.305-14.547 21.903-7.304 5.602-15.652 8.403-25.05 8.403l-97.5-.305c-8.602 0-16.5-1.843-23.7-5.546-7.203-3.7-13.1-8.598-17.703-14.704-4.6-6.093-7.796-13.093-9.597-21-1.8-7.894-1.598-15.945.597-24.148l1.204-4.5c1.394-5.598 3.75-10.797 7.046-15.602 3.3-4.796 7.15-8.894 11.55-12.296 4.4-3.403 9.302-6.047 14.7-7.954 5.403-1.894 11.102-2.847 17.102-2.847h81.898l-6 22.5c-1.6 5.403-4.6 9.802-9 13.2-4.398 3.402-9.402 5.102-15 5.102h-36.597c-3.403 0-5.602 1.703-6.602 5.1-.598 2.2-.2 4.153 1.2 5.85 1.398 1.702 3.2 2.55 5.402 2.55h59.097c2.2 0 4.098-.602 5.704-1.8 1.597-1.2 2.593-2.798 3-4.802l.597-2.398 14.7-54.3M672.586 59.102c14.594 0 27.945 3.148 40.047 9.45 12.1 6.3 22.148 14.65 30.152 25.05 7.996 10.402 13.45 22.3 16.348 35.7 2.898 13.4 2.45 27.1-1.348 41.096l-15 56.403c-1.004 4.005-3.152 7.2-6.45 9.598-3.3 2.403-6.952 3.602-10.952 3.602h-32.4c-3.8 0-6.8-1.445-9-4.352-2.202-2.894-2.803-6.148-1.8-9.75l18-68.097c1.4-4.995 1.547-9.902.45-14.698-1.102-4.8-3.05-9.047-5.848-12.75-2.805-3.7-6.402-6.7-10.8-9-4.403-2.297-9.204-3.454-14.4-3.454h-33.6L606.882 226.8c-1 4.005-3.15 7.2-6.45 9.598-3.3 2.403-7.05 3.602-11.25 3.602h-32.097c-3.602 0-6.555-1.445-8.852-4.352-2.297-2.894-2.95-6.148-1.95-9.75l44.4-166.796h81.902M849.28 116.25c-2.397 1.902-4.1 4.352-5.096 7.352l-13.5 51c-.8 2.8-.3 5.398 1.5 7.796 1.8 2.403 4.2 3.602 7.2 3.602H963.58l-9.598 35.703c-1.605 5.4-4.605 9.797-9 13.195-4.402 3.407-9.406 5.102-15 5.102h-113.1c-8.204 0-15.704-1.75-22.5-5.25-6.802-3.496-12.45-8.195-16.95-14.102-4.5-5.894-7.606-12.597-9.3-20.097-1.697-7.5-1.45-15.152.75-22.948l18.3-68.102c1.996-7.395 5.097-14.2 9.3-20.398 4.2-6.2 9.15-11.5 14.848-15.903 5.7-4.395 12.098-7.845 19.2-10.348 7.097-2.5 14.448-3.75 22.05-3.75h80.102c8.2 0 15.7 1.796 22.5 5.398 6.796 3.602 12.45 8.3 16.95 14.102 4.5 5.8 7.546 12.5 9.147 20.097 1.603 7.605 1.4 15.3-.596 23.1l-5.403 20.4c-2.397 9.003-7.25 16.253-14.546 21.753-7.304 5.5-15.554 8.25-24.75 8.25h-90.6l6-22.203c1.397-5.398 4.296-9.797 8.698-13.2 4.398-3.398 9.496-5.1 15.3-5.1h36.602c3.4 0 5.594-1.696 6.598-5.098l1.2-4.5c.6-2.2.198-4.204-1.2-6-1.402-1.8-3.2-2.704-5.398-2.704h-55.8c-3 0-5.7.954-8.103 2.852M963.277 240l60.3-226.5c.993-3.996 3.153-7.246 6.454-9.75 3.298-2.496 7.048-3.75 11.25-3.75h32.1c3.792 0 6.85 1.453 9.15 4.352 2.29 2.902 2.95 6.148 1.95 9.75l-45 167.1c-2.21 8.802-5.75 16.798-10.652 24-4.906 7.196-10.7 13.35-17.398 18.446-6.71 5.102-14.153 9.106-22.352 12-8.203 2.907-16.8 4.352-25.8 4.352" fill="#ff6c2c"/><g clip-path="url(#a)"><path d="M1112.488 19.715h2.96c1.462 0 2.63-.38 3.513-1.137.892-.754 1.33-1.715 1.33-2.883 0-1.367-.392-2.347-1.18-2.937-.782-.594-2.02-.89-3.72-.89h-2.902zm11.87-4.13c0 1.462-.378 2.75-1.16 3.868-.776 1.12-1.858 1.957-3.268 2.504l6.51 10.8h-4.588l-5.66-9.68h-3.704v9.68h-4.04V8.396h7.13c3.03 0 5.25.593 6.66 1.777 1.422 1.183 2.12 2.988 2.12 5.414zm-26.03 4.977c0 3.157.793 6.102 2.383 8.844 1.59 2.746 3.75 4.907 6.49 6.485 2.75 1.575 5.69 2.364 8.82 2.364 3.17 0 6.12-.793 8.832-2.38 2.718-1.585 4.878-3.73 6.468-6.437 1.602-2.707 2.39-5.667 2.39-8.875 0-3.17-.788-6.117-2.382-8.832a17.746 17.746 0 0 0-6.43-6.464c-2.707-1.598-5.668-2.395-8.878-2.395-3.168 0-6.11.794-8.83 2.38-2.72 1.586-4.87 3.73-6.47 6.438-1.59 2.707-2.392 5.667-2.392 8.874zm-2.867 0c0-3.644.91-7.062 2.73-10.253 1.83-3.193 4.33-5.705 7.52-7.548A20.29 20.29 0 0 1 1116.02 0c3.652 0 7.07.91 10.26 2.734 3.19 1.825 5.7 4.329 7.54 7.52a20.298 20.298 0 0 1 2.758 10.309c0 3.59-.88 6.964-2.648 10.117-1.77 3.156-4.25 5.68-7.442 7.574-3.18 1.894-6.68 2.844-10.468 2.844-3.77 0-7.25-.946-10.442-2.828-3.187-1.887-5.68-4.41-7.45-7.563-1.776-3.152-2.667-6.535-2.667-10.145" fill="#ff6c2c"/></g></svg>
