<svg xmlns="http://www.w3.org/2000/svg" width="415pt" height="400" viewBox="0 0 415 300"><g style="fill:#009aff;fill-opacity:1"><g style="fill:#009aff;fill-opacity:1"><path fill="#cecece" d="M608.46 230.82c4.39.07 8.78.68 13.07 1.59.13.46.4 1.36.54 1.82-4.59-.81-9.34-1.54-13.61-3.41z" style="fill:#009aff;fill-opacity:1" transform="translate(-336.129 -129.582)"/><path fill="#010101" d="M678.98 153.25c5.78 0 11.49.99 17.18 1.9-1.36 3.58-4.07 6.48-7.76 7.64 1.25.73 2.5 1.46 3.75 2.2-3.21 3.35-7.96 1.69-11.87.96-1.74-.09-2.41-1.7-3.02-3.04 1.98-.1 3.98-.17 5.98-.27-2.19-2.74-4.22-5.73-4.26-9.39zM654.83 155.11c3.96-.87 8.01-1.91 12.09-1.5 2.13 2.02 5.24 5.75 2.23 8.33 3.25.44 7.36.38 8.74 4.05-3.78.43-8.39 2.73-11.63-.32-1.68-1.32-2.14-3.86-4.25-4.62-2.98-1.17-5.58-3.15-7.18-5.94zM699.87 165.19c.28-3.47 3.34-5.76 6.34-6.95 4.41.13 8.52 2.41 12.27 4.6-5.44 3.55-12.09 3.96-17.71 7.03-3.32 1.71-6.81-.69-9.82-2.04.71-3.9 6.04-2.52 8.92-2.64zM640.59 161.93c2.38-1.03 4.79-2.23 7.41-2.47 3.89.78 6.77 3.49 9.46 6.18 3.95 1 8.13 1.68 11.36 4.43-1.73 1.57-3.47 3.64-5.92 3.92-5.22-.3-10.29-1.76-15.12-3.66-5.51-.29-10.9-1.6-16.08-3.44 2.55-3.8 7.42-2.93 11.11-1.56 4.96 1.42 10.29 5.72 15.46 2.7-5.64-2.77-12.22-2.88-17.68-6.1zM672.83 170.3c2.82-.3 5.36-1.36 7.39-3.36 3.77-.86 6.08 2.67 9.34 3.69 1.18.34 2.1 1.12 2.56 2.27-5.03 1.22-10.03-1.09-15.1-.15-2.01.71-3.22-1.03-4.19-2.45zM713.85 169.89c4.01-.9 8.01-2.06 12.17-2.12 2.6-.48 4.31 1.93 6.08 3.39-5.79 2.4-12.3 1.25-18.38 1.03.35 1.96 2.45 2.64 4.21 2.3 4.97-.69 10.01-1.31 15.03-.76 2.76.13 3.66 3.22 4.3 5.42-4.63-.14-9.46.08-13.85-1.63-3.32-1.79-6.89.62-10.39.02-3.03-.37-6.91.18-8.69-2.89-.72-1.16-2.93-2.8-1.01-3.97 3.41-1.04 7.01-.61 10.53-.79zM625.82 172.7c.98-1.95 2.9-3.4 5.18-3.13 5.37.74 10.35 3 15.28 5.13 4.64.77 9.33 1.53 13.62 3.59-1.66 1.58-3.27 3.27-5.25 4.48-6.04.35-11.91-1.47-17.59-3.2-6.26.72-12.62.03-18.67-1.63 1.34-2.19 3.68-4.46 6.49-3.71 5.85.83 11.61 2.17 17.25 3.95 1.49.65 3.01.09 4.11-1.02-6.7-1.96-13.81-2.08-20.42-4.46zM679.9 177.46c4.66.06 8.28-3.85 12.97-2.87 1.26 3.09 5.66 3.16 6.38 6.39-4.54.85-8.77-1.55-13.28-1.17-2.14-.03-5.23.14-6.07-2.35zM670.7 178.57c2.09-1.39 5.46-1.5 7.03.74 1.39 1.62 3.45 2.37 5.03 3.77-1.19 2.05-3.86 1.39-5.72.98-4.19-1.18-8.57-.97-12.85-1.48-.01-.55-.04-1.66-.06-2.22 2.25-.33 4.66-.38 6.57-1.79zM718.04 181.3c5.84-.94 11.75-1.08 17.67-.93.74 1.28 1.35 2.63 1.83 4.05-5.7.58-11.45.23-17.08-.73-1.6-.34-3.22-.2-4.76.28 1.24.98 2.6 2.14 4.33 1.73 6.23-.59 12.45.05 18.63.83.23 1.75.28 3.51.22 5.27-5.77-.65-11.67-1.12-16.95-3.72-5.57.34-11.13-.11-16.55-1.44-.34-1.88-.61-3.77-.75-5.67 4.47-.51 8.97-.44 13.41.33zM618.45 182.46c6.68-.01 13.43 1.15 19.66 3.59 4.97.41 10.1.27 14.87 2.03 1.61 1.61 1.87 4.09 2.71 6.13-5.22 1.03-10.45-.06-15.63-.57-5.77.66-11.65.53-17.36-.49-2.2-.31-3.49-2.18-4.26-4.08 6.36-.44 12.72.37 18.93 1.7 1.64.04 5.05 1.06 4.58-1.67-7.16-2.96-15.39.49-22.58-2.48-1.65-.82-.85-2.74-.92-4.16zM681 187.08c3.62-1.34 7.29 1.01 10.99.75 2.79.23 6.75-.8 8.09 2.47-2.85.37-5.87.85-7.6 3.43-2.51-.04-5.28-.05-6.85-2.34-1.06-1.91-5.98-1.64-4.63-4.31zM669.86 189.93c1.42-1.82 3.95-1.24 5.93-.93 2.34 2.22 5.11 3.82 8.06 5.12-2.7 2.86-6.56.64-9.83.59-3.33-.47-7.5 1.11-10.08-1.73 1.43-1.95 4.42-1.12 5.92-3.05zM706.59 194.56c6.54-1.85 13.18 1.78 19.7.02 4.54-.47 9.12-.07 13.63.55-.1 1.5-.21 2.99-.32 4.49-4.59.32-9.21-.15-13.62-1.48-3.03-.9-6.73-1.63-9.37.62 1.68.8 3.37 1.85 5.33 1.64 5.69-.14 11.41.27 16.93 1.75-.41 1.18-.8 2.35-1.19 3.53-5.55.26-11.2-.29-16.5-1.96-5.36-2.68-11.81-.44-17.03-3.62.78-1.86 1.5-3.75 2.44-5.54zM619.25 195.77c5.36.09 10.67.89 15.82 2.4 6.57-.21 15.65-1.47 19.28 5.56-6.18 1.03-12.49.35-18.61 1.76-3.71.13-9.52.8-11.11-3.48 5.87-.59 11.75.14 17.63-.24-1.02-.69-1.96-1.73-3.28-1.72-5.58-.25-11.22.65-16.77-.26-2.11-.12-2.28-2.52-2.96-4.02zM674.49 198.36c4.24-.76 8.28 1.34 12.52.95 1.98.14 4.45-.46 6.06 1.01 1.85 1.36-1.4 1.97-2.32 2.25-2.28.19-3.67 2.45-5.84 2.7-4.45.86-6.26-4.52-10.56-4.64.04-.56.1-1.7.14-2.27zM661.48 207.13c4.37-2.52 8.94.65 13.52.06 2.71-.25 6-.25 7.4 2.58-2.47.64-5.31.63-7.09 2.72-1.6 1.67-4.12.84-6.1.56-2.13-2.54-4.98-4.16-7.73-5.92zM692.56 211.92c1.63-2.33 3.88-4.18 6.45-5.4 4.06-.23 7.96 1.45 12.01 1.72 7.03.36 14.08.78 21.06 1.76 3.16.1.66 4.26-1.12 4.46-6.53-.01-12.94-1.55-19.15-3.4-2.33-.74-4.79-.4-7.16-.2.77 1.21 1.83 2.36 3.43 2.2 7.1.2 14.05 1.73 20.97 3.25-1.98 1.8-4.08 4.44-7.1 3.6-5.14-.86-10.26-2.1-15.16-3.86-4.42-2.48-9.81-1.62-14.23-4.13zM607.37 229.48c1.8-2.3 5-2.2 7.58-1.56 7.64 1.67 15.29 3.39 22.84 5.46.13 2.52-3.21 3.36-5.05 4.35-10.96-.79-21.91-1.97-32.9-2.4 1.71-2.91 5.51-3.25 7.53-5.85m1.09 1.34c4.27 1.87 9.02 2.6 13.61 3.41-.14-.46-.41-1.36-.54-1.82-4.29-.91-8.68-1.52-13.07-1.59zM649.73 237.68c1.78-1.13 3.82-.36 5.7.02.97 2.6 2.66 4.82 3.96 7.26-2.33.19-4.77.62-6.96-.41-3.78-1.71-7.98-1.37-11.96-2.16 0-.89.02-1.78.04-2.67 3.16-.24 6.39-.46 9.22-2.04zM594.4 241.19c.78-1.18.95-3.37 2.7-3.53 3.49-.48 7.01.45 10.48.85 7.14 1.29 14.42 1.77 21.47 3.54-1.14 1.72-2.11 4.12-4.45 4.39-3.85.44-7.73.13-11.59.26-7.73.01-15.44.96-23.16.47.89-1.66 1.45-3.72 3.18-4.72 5.09-.59 10.17.5 15.06 1.81 2.1.63 4.2-.12 6.04-1.16-1.25-.92-2.68-1.54-4.24-1.44-5.17-.12-10.34 0-15.49-.47zM670.19 238.96c5.29-.29 10.56.62 15.85.84 5.96.56 12.07.2 17.9 1.81-1.1 1.03-2.08 2.22-3.37 3-6.03 1-11.86-.97-17.77-1.69.42 1.12 1.19 1.78 2.32 1.99 4.95.98 10.05.74 15.05 1.35-.79 1.19-1.46 2.5-2.56 3.44-2.22.39-4.47-.14-6.64-.52-7.87-1.58-15.69-3.4-23.48-5.3.71-1.73 1.22-3.66 2.7-4.92zM633.93 246.91c2.89-2.77 6.68-1.08 9.77.27 3.16 1.4 7.69-.39 9.91 2.86-.65 1.9-3.13 1.37-4.68 1.64-2.6-.19-4.65 1.7-7.08 2.22-1.92-.09-3.77-.61-5.62-1 .23-.98.47-1.95.72-2.92a96.886 96.886 0 0 1-3.02-3.07zM610.01 249.04c4.37-.7 8.8-.76 13.22-.77.1 1.18.07 2.36-.09 3.54-3.86 2.44-8.65 2.6-13.01 1.76-1.6 1.32-3.32 2.55-5.39 2.96-4.39 1.01-8.8 2.8-13.38 2.22-2.46-1.9-3.08-5.7-2.52-8.58 6.83-1.97 14.15-.92 21.17-1.13zM659.86 252.9c1.21-1.79 2.35-3.78 4.29-4.88 2.19-.46 4.43.2 6.61.48 8.08 1.52 16.16 3.1 24.24 4.61-.98 1.11-1.92 2.29-3.1 3.19-4.64.99-9.23-.93-13.45-2.64-1.47-.91-2.73.51-3.84 1.27 4.89 1.17 9.94 1.62 14.8 2.94-1.32 1.66-2.92 4.02-5.4 3.05-8.28-1.87-16.19-5.11-24.15-8.02zM613.71 257.57c3.35-1.51 6.55-3.5 10.25-4.09 1.84.63 3.89 1.82 4.72 3.66-2.76 3.62-7.98 2.57-11.96 3.34-.25 1.38-.49 2.76-.77 4.13-3.77 1.87-7.13 6.08-11.79 4.48-3.19-1.77-7.72-2.94-8.66-6.94 6.02-1.67 11.84-4.62 18.21-4.58zM658.26 254.11c2.9.48 5.41 2.24 7.85 3.8 3.87 2.96 8.91 3.53 13.08 5.93 1.02.59 2.85 1.52 1.97 3.01-2.26 1.71-5.07 2.42-7.63 3.52-2.95 1.04-5.92 2.55-9.12 2.4-2.77-2.3-4.83-6.1-2.05-9.31-2.95-.59-6.56-1.21-7.47-4.62-1.15-2.51 1.43-3.94 3.37-4.73z" style="fill:#009aff;fill-opacity:1" transform="translate(-336.129 -129.582)"/><path fill="#010101" d="M625.78 259.94c1.65-.93 3.23-2.3 5.2-2.44 2.75.33 5.41 1.18 8.13 1.73.28 1.36.55 2.73.8 4.11-2.02.18-4.03.41-6.02.7 1.15 1.3 2.78 2.33 3.3 4.09-.14 2.64-.86 5.2-1.41 7.77-6 .39-11.81-1.35-17.68-2.25-2.26-.33-4.48-.89-6.59-1.77 3.92-5.08 10.08-8.38 16.55-8.55-.76-1.14-1.54-2.26-2.28-3.39zM639.98 259.92c3.36-.84 6.8-1.26 10.24-1.7 1.43 2.27 2.48 4.78 2.1 7.53 3.25 2.12 5.42 5.7 4.65 9.69-4.92.42-9.87 1.64-14.8.61-.14-2.56-.38-5.17.15-7.71.95-1.39 2.75-1.76 4.15-2.56-2.51-1.54-5.16-3.11-6.49-5.86z" style="fill:#009aff;fill-opacity:1" transform="translate(-336.129 -129.582)"/></g><g style="fill:#009aff;fill-opacity:1"><path fill="#010101" d="M428.89 229.54c5.66-.33 11.24-2.07 16.95-1.42.01 3.86-.64 8.06-4.45 9.98 1.79.49 3.6.92 5.41 1.34.1 1.22.21 2.45.31 3.69-3.9 1.33-8.03 1.47-12.09 1.87-.97-1.79-1.77-3.7-1.55-5.77-3.15-1.99-5.3-5.95-4.58-9.69zM455.82 238.79c-1.8-4 .4-8.22 3.29-11 5.82-.36 11.75.87 17.52 1.81l.55 1.3c-5.15 3.89-10.93 7.02-17.3 8.3 4.55 3.51 10.29 3.51 15.76 3.49.23-1.11.47-2.22.72-3.32 3.87-1.96 7.67-4.13 11.76-5.62 3.82.24 7.04 2.77 9.66 5.38-4.91 2.53-10.22 4.38-15.76 4.73-3.03 0-4.98 2.7-7.75 3.49-2.6.84-5.29 1.82-8.05 1.73-1.98-1.2-4.37-2.38-5.18-4.71-4.04.42-8.04-.39-12.04-.82.06-1.37.13-2.73.22-4.09 2.2-.25 4.39-.48 6.6-.67zM403.82 237.01c2.38-2.47 5.94-3.13 9.19-3.6 3.45 1.07 6.62 3.28 8.36 6.5 3.02.57 8.47.97 8.55 4.89-3.44 2.11-7.24 3.71-11.12 4.81-4.58-.34-9.56-1.1-12.93-4.54-5.74 1.88-11.7.13-17.35-1.2 3.38-3.79 9.11-6.15 14.09-4.38 2.95.68 5.69 2.04 8.14 3.8 2.29 1.93 5.4.27 7.86-.42-4.7-2.52-10.46-2.47-14.79-5.86z" style="fill:#009aff;fill-opacity:1" transform="translate(-294.445 -118.322)"/><path fill="#010101" d="M448.16 246.18c2.68-1.71 5.85-1.46 8.7-.31-.81 2.28-.15 4.43 1.22 6.33-3.71 2.3-7.74.35-11.47-.73-2.79-.86-6.81.69-8.43-2.48 2.09-3.26 6.98-.73 9.98-2.81zM380.44 249.78c2.53-2.61 6.47-4.67 10.13-3.32 3.37.96 6.71 2.24 9.57 4.31 1.34 1.2 3.21.95 4.87 1.18 3.18.13 6.11 1.49 8.85 3.01-2.31 2.81-5.47 4.93-8.88 6.14-5.49.12-11.01-.67-15.97-3.06-6.62 1.56-13.51.86-20.07-.7 2.31-2.22 4.75-5.01 8.13-5.35 5.3.19 10.51 1.51 15.39 3.55 2.35 1.16 5.55.97 7.58-.68l-.25-.88c-6.55-.84-13.29-1.33-19.35-4.2zM480.57 250.43c5.41-2.65 11.29-4.01 17.28-4.6.95 1.59 4.39 3.81 2.87 5.55-6.8 1.2-13.75.9-20.62 1.1-1.86-.03-3.59.67-5.21 1.51 1.48 1.12 3.22 2.02 5.15 1.85 7.73-.31 15.5-2.68 23.22-.83-.22 1.52-.44 3.04-.68 4.56-6.84.44-13.82.9-20.54-.78-6.55 1.32-13.23.83-19.82.13.09-2.11-.16-4.27.37-6.33 5.66-2.57 12.01-1.82 17.98-2.16zM430.27 252.32c1.87-1.01 4.04-1.53 6.12-.85 2.02.14 1.61 2.56 2.08 3.95 1.05.87 2.86 1.6 2.27 3.29-2.61 1.53-5.71.89-8.41-.01-3.82-1.37-7.94-.35-11.84-1.27 0-.91.01-1.81.03-2.72 3.29-.62 6.75-.76 9.75-2.39zM440.71 260.68c2.44-1.69 5.36-.95 8.03-.39-.13 1.17-.28 2.34-.42 3.51 1.36.79 2.69 1.62 4.01 2.5-2.68 2.4-6.5 2.23-9.64.94-3.72-1.58-7.87.03-11.61-1.39-.01-.67-.04-2-.06-2.67 3.22-.91 6.76-.67 9.69-2.5zM357.87 266.68c.73-2.56 2.84-4.76 5.38-5.5 5.08.51 10.44 1.63 14.48 4.95 5.12 1.03 10.65.89 15.3 3.63-2.16 2.52-3.77 5.78-6.7 7.5-4.79 1.29-9.68-.49-14.37-1.42-7.11.88-14.58.8-21.32-1.85.62-1.74 1.56-3.33 2.66-4.8 5.59.36 11.3.74 16.55 2.86 3.05 1.26 7.06.79 9.1-2.03-3.58-2.3-7.86-1.23-11.83-1.47-3.16-.11-6.25-.93-9.25-1.87zM482.41 263.62c5.87-.86 11.81-.8 17.72-.86.24 1.66.43 3.33.61 5.01-7.55 1.47-15.16-.01-22.72-.5-1.95-.03-5.27-.34-5.22 2.48 9.11-.04 18.25-.49 27.32.76.16 2.07-.21 4.11-.62 6.12-7.34.37-14.81-.77-21.56-3.71-6.71.63-13.59.67-20.17-1.04-.52-2.39.74-4.78 1.09-7.14 4.94-.75 9.98-1.26 14.94-.34 2.9.65 5.76-.39 8.61-.78zM404.97 266.1c2.72-.68 5.63-1.44 8.36-.29 3.59 1.49 7.49 1.22 11.28 1.65 1.75 0 1.21 2.18 1.49 3.29-3.71.43-7.67.27-10.99 2.23-2.55 1.6-5.64.75-8.32.04.34-1.25.71-2.48 1.07-3.72-1-1.04-1.96-2.11-2.89-3.2zM439.42 284.89c3.23-2.7 6.89-4.92 10.81-6.45 5.65-.68 11.38.2 16.76 1.98 8-1.31 16.06.02 24.05.9-.13 3.62-4 5.38-7.09 5.81a49.545 49.545 0 0 1-15.36-3.61c-3.78-1.62-8.08-1.04-11.72.64 1.21.95 2.38 2.23 4.08 2.12 3.84.16 7.74.01 11.5 1.01 3.02.87 6.8.74 8.86 3.49-3.13 1.6-6.53 3.13-10.14 2.79-5.74-.77-11.58-1.93-16.56-5.05-5.23-.38-10.46-1.25-15.19-3.63zM346.09 280.01c6.79.93 13.62 1.88 20.22 3.79 4.87 1.67 10.12.73 15.09 1.87.93 2.55.69 7.03-2.03 8.68-4.37.95-8.79-.16-13.17-.21-8.17 1.37-16.55 1.05-24.76.24-.14-1.94-.62-4.12.59-5.84 7.5-.21 15.03.58 22.37 2.16 2.32.64 4.67-.25 6.57-1.59-3.25-2.24-7.27-1.62-10.96-1.55-5.73.26-11.47-.42-17.01-1.85.47-2.17 1.61-4.07 3.09-5.7zM394.32 280.72c2.85-.49 5.91-.95 8.61.45 3.53 1.94 7.64.7 11.39 1.66 1.25.91.48 2.32.23 3.51-4.09.12-8.25.5-11.92 2.48-2.37 1.47-5.06 0-7.44-.61.5-1.08 1.02-2.14 1.56-3.19-1.4-1.08-2.38-2.5-2.43-4.3zM426.84 295.36c4.89-1.23 9.7-3.77 14.88-2.94 3.72.28 7.16 1.72 10.52 3.25 6.43.16 13.07-.02 19.2 2.33-2.66 1.59-5.38 3.36-8.52 3.74-5.02-.4-9.67-2.6-14.28-4.48-2.55-1.11-5.64-.68-7.9.89 4.64 2.1 10.2 1.9 14.41 5.06 1.55 1.41-1.28 2.34-2.33 2.55-4.63.84-9.87.13-13.52-3.05-3.69-3.27-9.67-2.96-12.46-7.35zM393.22 293.64c2.92-.64 6.08-1.34 8.84.27 3.67 2.22 8.19.53 11.97 2.24.02.66.05 1.99.07 2.65-3.84.79-8.12.52-11.43 2.91-2.56 1.93-5.82.31-8.59-.16.41-1.31.94-2.58 1.57-3.79-1.52-.9-2.63-2.26-2.43-4.12zM325.34 329.87c.75-1.74.84-4.29 2.72-5.19 5.31.85 10.47 2.49 15.7 3.72 5.58 1.5 11.36 2.34 16.72 4.56-1.51 2.13-3.07 4.22-4.56 6.36-7.44.01-14.86-.59-22.29-.87-4.51-.39-9.22-.27-13.45-2.11 1.04-1.5 2.07-3.01 3.04-4.55 6.22 1.07 12.3 3.5 18.69 3.08.16-.54.48-1.62.64-2.17-5.89.19-11.79-.41-17.21-2.83zM372.28 337.3c1.99-1.79 4.8-.98 7.2-.89.26 3.23 2.55 5.31 5.12 6.94l.2 2.29c-3.1.68-6.33.97-9.37-.15-4.17-1.63-8.7.85-12.87-.9-.1-.65-.29-1.95-.38-2.59 3.45-1.37 7.17-2.28 10.1-4.7zM396.2 337.03c4.25-.68 8.54-.12 12.81-.02 7.45.39 14.98.05 22.32 1.65.26 1.56.51 3.11.77 4.67-6.33-.74-12.59-2.27-18.98-2.28-1.27-.27-2.28 1.31-1.42 2.31 5.83.6 11.87-.3 17.55 1.4 2.14 1.63 1.4 4.58 1.61 6.9-7.15-1.44-14.18-3.37-21.27-5.06-4.47-1.08-9.08-1.55-13.47-2.92-1.3-1.88.05-4.51.08-6.65zM317.57 341.34c11.39.83 22.78 1.85 34.12 3.3-.29 3.1-1.01 7.68-4.86 8.05-10.7.91-21.46 1.6-32.21 1.37-.08-1.81-.07-3.61 0-5.4 6.14-.06 12.19 1.12 18.29 1.71.29-.65.86-1.95 1.15-2.6-5.95-1.31-12.67 1.96-18.17-1.75.57-1.56 1.14-3.12 1.68-4.68zM359.41 350.5c4.14-1.78 8.31 1.3 12.53.74 2.81-.02 6.31-1.74 8.52.8.75 4.97-6.35 2.72-8.22 6.1-2.03 3.05-6.04 2.4-9.14 1.94-.23-1.52-.43-3.03-.62-4.54-1.51-.6-3-1.23-4.48-1.88.19-1.13-.12-2.87 1.41-3.16zM393.08 349.84c12.01 1.6 24.14 2.7 35.97 5.41-.66 1.79-1.38 3.56-2.07 5.34-6.25-.64-11.88-3.74-17.98-4.97-2.06-.36-3.69 1.05-5.1 2.31 1.52 1.03 3.1 2.32 5.07 2.01 5.59-.18 11.4.31 16.38 3.1-.44 2.81-2.36 4.89-4.35 6.76-4.75-1.65-9.29-3.84-13.85-5.94-5.64-2.64-11.61-4.49-17.26-7.11-.25-2.79 1.38-4.99 3.19-6.91zM331.56 357.42c5.43-1.76 11.07-2.9 16.8-2.92-.53 1.93-.38 4.42-2.2 5.73-3.77 2.78-8.42 4.62-13.17 3.96-3.96-.88-4.19 4.27-7.09 5.71-3.55 1.99-7.48 4.21-11.65 4-3.05-3.51-3.97-8.55-4.89-13.03 6.93-3.3 14.8-2.52 22.2-3.45zM383.85 364.87c-.86-2.85 2.01-4.37 4.21-5.22 4.65.77 8.4 3.73 12.33 6.05 5.99 1.06 11.21 4.18 16.69 6.63-.38 1.39-.34 3.15-1.8 3.93-4.31 3-8.84 6.7-14.21 7.19-3.31-2.13-5.91-5.2-8.08-8.45-1.09-1.46-.38-3.33-.26-4.96-3.69.18-8.1-.97-8.88-5.17zM336.27 370.32c3.39-3.87 7.97-6.25 12.67-8.14 2.32 1.75 4.75 3.37 6.91 5.33 4.01-.51 8.06-.14 12.05.43-.04 1.87-.03 3.75-.03 5.62-2.05.55-4.08 1.14-6.11 1.74.78 1.66 2.22 2.77 3.67 3.83.13 4.23.42 9.03-1.7 12.79-3.8.67-7.65-.22-11.45-.49-5.45-.75-11.17-.81-16.25-3.18 2.97-4.03 6.44-7.77 10.62-10.58 2.61-1.43 5.59-1.97 8.43-2.78-1.43-1.5-2.52-3.43-4.21-4.62-3.57.61-7.09 1.5-10.61 2.32.59 1.36 1.19 2.72 1.75 4.1-4.02 3.12-7.52 7.16-12.26 9.17-3.58.17-6.7-2.17-9.51-4.11-1.3-.71-1.15-2.26-1.37-3.49 5.35-3.59 11.04-6.7 17.4-7.94zM370.45 367.66c2.98-1.18 6.15-1.77 9.25-2.52 1.93 2.65 2.87 5.79 2.83 9.06 1.72.49 3.75.82 4.61 2.64 2.05 3.33 5.04 6.62 4.85 10.78-6.19 1.7-12.49 3.56-18.94 3.68-2.48-1.87-1.64-5.58-2.02-8.3-.45-3.29 3.09-5 4.9-7.19-1.84-1.13-3.75-2.13-5.64-3.15.13-1.6-1.23-3.82.16-5z" style="fill:#009aff;fill-opacity:1" transform="translate(-294.445 -118.322)"/><path d="M424.66 273.62c2.81-1.53 6.17-1.02 8.99.21-.64 1.08-1.27 2.17-1.91 3.25 1.01 1.04 2.04 2.08 3.05 3.15-2.71 1.39-5.94 2.25-8.8.78-3.73-1.87-7.96-1.7-12-2.1-.04-.77-.12-2.32-.15-3.1 3.64-.5 7.46-.49 10.82-2.19z" style="fill:#009aff;fill-opacity:1" transform="translate(-294.445 -118.322)"/></g></g></svg>